<svg xmlns="http://www.w3.org/2000/svg" xmlns:xlink="http://www.w3.org/1999/xlink" viewBox="0 0 750 500"><defs><style>.cls-1,.cls-7,.cls-9{fill:none;}.cls-2{clip-path:url(#clip-path);}.cls-3{fill:url(#linear-gradient);}.cls-4{fill:url(#linear-gradient-2);}.cls-5{fill:url(#linear-gradient-3);}.cls-6{fill:#ea227a;}.cls-7{stroke:#ea227a;}.cls-7,.cls-9{stroke-miterlimit:10;}.cls-8{fill:#fff;}.cls-9{stroke:#fff;}</style><clipPath id="clip-path"><rect class="cls-1" width="750" height="500"/></clipPath><linearGradient id="linear-gradient" x1="338.81" y1="-191.66" x2="117.92" y2="196.67" gradientUnits="userSpaceOnUse"><stop offset="0" stop-opacity="0"/><stop offset="0.02" stop-color="#000205" stop-opacity="0.04"/><stop offset="0.16" stop-color="#00142d" stop-opacity="0.33"/><stop offset="0.32" stop-color="#00224d" stop-opacity="0.57"/><stop offset="0.47" stop-color="#002e66" stop-opacity="0.76"/><stop offset="0.63" stop-color="#003678" stop-opacity="0.9"/><stop offset="0.8" stop-color="#003a83" stop-opacity="0.97"/><stop offset="1" stop-color="#003c86"/></linearGradient><linearGradient id="linear-gradient-2" x1="741.6" y1="420.24" x2="694.02" y2="503.87" xlink:href="#linear-gradient"/><linearGradient id="linear-gradient-3" x1="855.3" y1="147.24" x2="627.08" y2="548.44" xlink:href="#linear-gradient"/></defs><g id="OBJECTS"><g class="cls-2"><path class="cls-3" d="M-20.57,118.45c18.57,4.9,37.45,8.09,56.69,8.47A221.11,221.11,0,0,0,91,120.86c18.38-4.3,35.9-10.87,53.3-18.09a406.81,406.81,0,0,0,46-22.51,446.74,446.74,0,0,0,83.09-61.8q4.84-4.53,9.57-9.18a146.09,146.09,0,0,1,11.3-9.63l5.25-4.2a20.31,20.31,0,0,0,3.74-4.27c1.56-2.08,4-3.71,6-5.39l5.88-5q22.15-18.87,44.7-37.3a193.67,193.67,0,0,1,24.08-16.33c8.35-4.93,16.77-9.85,25.32-14.42,17.11-9.15,35.75-14.88,54.21-20.61,4.66-1.45,9.31-2.9,13.94-4.39.76-.24.44-1.45-.33-1.2-18.46,5.94-37.2,11.14-55.09,18.7A201.56,201.56,0,0,0,397.7-82.21c-8.15,4.83-16.48,9.29-24.46,14.42s-15.13,11-22.41,17S336.21-38.72,329-32.61q-11.29,9.49-22.5,19.1a25.94,25.94,0,0,0-4.31,4.06,24.74,24.74,0,0,1-2.05,2.82,36.66,36.66,0,0,1-3,2.4c-3.87,3.09-7.88,6.06-11.62,9.3-3.36,2.88-6.38,6.23-9.59,9.28s-6.42,6-9.69,9q-9.72,8.78-19.91,17a436.08,436.08,0,0,1-42.35,30.26,407.12,407.12,0,0,1-45.49,24.61,401.43,401.43,0,0,1-51.73,20.11,238,238,0,0,1-55.55,10.07,217.11,217.11,0,0,1-57.46-4.8c-4.68-1-9.32-2.15-13.94-3.37a.62.62,0,0,0-.33,1.2Z"/><path class="cls-4" d="M749,424.28c-8.51,9.78-16.45,20-24.57,30.12-3.93,4.9-7.78,10-12.19,14.5s-8.6,9.12-12.72,13.85c-4.65,5.35-9.18,10.79-13.76,16.19-.52.61.36,1.5.88.89,8.13-9.59,16.12-19.3,24.84-28.36s16.35-19.37,24.26-29.24c4.62-5.76,9.29-11.49,14.14-17.07.53-.6-.35-1.49-.88-.88Z"/><path class="cls-5" d="M541.78,499.5A206.62,206.62,0,0,1,575.39,405a240.39,240.39,0,0,1,15.78-20.7c2.73-3.29,5.2-6.75,8.16-9.85s6-6.25,9-9.32c12-12.09,24.86-23.48,39.34-32.55,1.6-1,3.23-2,4.86-2.93a64.36,64.36,0,0,0,5.71-3.15,21.07,21.07,0,0,0,2.07-2.05,15.24,15.24,0,0,1,2.84-2.08c2.06-1.23,4.14-2.45,6.23-3.64q11.54-6.62,23.46-12.5A527.71,527.71,0,0,1,742,285.11c16.41-6.15,33.06-11.63,49.81-16.77,8.45-2.6,16.92-5.11,25.4-7.59,8.82-2.57,17.74-4.74,26.55-7.35,4.47-1.32,8.91-2.77,13.28-4.41,2.18-.81,4.58-2.23,6.91-2.37,2.05-.12,3.73.14,5.69-.6,9.09-3.42,18.14-7,27.21-10.45,8.59-3.32,17.32-6.37,25.69-10.25s16.3-8.2,24.2-12.75a24.48,24.48,0,0,0,4.92-3.4,14,14,0,0,1,5.47-3.42c.77-.24.44-1.45-.33-1.21-3.86,1.22-6.24,4.38-9.65,6.35-4.07,2.35-8.18,4.67-12.33,6.89a224.92,224.92,0,0,1-26.21,11.94c-9.05,3.44-18.08,7-27.12,10.45q-3.41,1.32-6.82,2.61c-2.31.88-5,2.35-7.45,2.6-1.76.17-3.55-.33-5.22.33-2.38.94-4.75,1.89-7.15,2.76-8.89,3.21-18,5.47-27.09,7.93-8.7,2.34-17.33,5-26,7.6-17.07,5.12-34.07,10.5-50.85,16.5-16.49,5.91-32.78,12.43-48.67,19.83q-12.3,5.73-24.25,12.18-6,3.23-11.84,6.65a46.36,46.36,0,0,0-5.57,3.3c-.77.61-1.4,1.43-2.13,2.1a16,16,0,0,1-3.4,2.25c-14.69,8-27.84,18.5-39.95,30-6.29,6-12.6,12.08-18.34,18.58-2.9,3.28-5.34,6.95-8.33,10.17a113.58,113.58,0,0,0-7.74,9.71A208.82,208.82,0,0,0,542,487.64q-.9,5.91-1.45,11.86c-.08.8,1.18.8,1.25,0Z"/><path class="cls-6" d="M526.32-5.53h-1A241.09,241.09,0,0,0,595.61,146a241.11,241.11,0,0,0,160.56,70.88v-1C634.69,210.35,536.31,114.76,526.32-5.53Z"/><path class="cls-6" d="M57.3,506.21C72.51,437.5,133.9,386,207.12,386s134.6,51.54,149.81,120.25h1C342.73,437,280.88,385,207.12,385S71.51,437,56.28,506.21Z"/><circle class="cls-7" cx="616.68" cy="256.2" r="30.59" transform="translate(55.69 618.45) rotate(-55.41)"/><circle class="cls-8" cx="563.54" cy="158.6" r="4.6"/><path class="cls-6" d="M658.18,86.58a2.3,2.3,0,1,1-2.3-2.3A2.29,2.29,0,0,1,658.18,86.58Z"/><circle class="cls-8" cx="427.11" cy="116.45" r="2.3"/><circle class="cls-8" cx="472.93" cy="467.61" r="2.3"/><circle class="cls-6" cx="19.19" cy="304.49" r="2.3"/><path class="cls-6" d="M713.24,372.05a2.3,2.3,0,1,1-2.3-2.29A2.3,2.3,0,0,1,713.24,372.05Z"/><path class="cls-8" d="M276,439.41a3.13,3.13,0,1,1-3.13-3.12A3.13,3.13,0,0,1,276,439.41Z"/><rect class="cls-6" x="503.43" y="27.84" width="4.22" height="14.23"/><rect class="cls-6" x="503.43" y="27.84" width="4.22" height="14.23" transform="translate(540.5 -470.59) rotate(90)"/><rect class="cls-6" x="3.96" y="158.58" width="2.74" height="9.23"/><rect class="cls-6" x="3.96" y="158.58" width="2.74" height="9.23" transform="translate(168.52 157.87) rotate(90)"/><rect class="cls-8" x="531.8" y="437.92" width="2.74" height="9.23"/><rect class="cls-8" x="531.8" y="437.92" width="2.74" height="9.23" transform="translate(975.71 -90.63) rotate(90)"/><rect class="cls-8" x="107.98" y="435.57" width="4.95" height="16.68"/><rect class="cls-8" x="107.98" y="435.57" width="4.95" height="16.68" transform="translate(554.36 333.45) rotate(90)"/><line class="cls-7" x1="59.06" y1="27.84" x2="21.3" y2="65.6"/><line class="cls-7" x1="542.05" y1="352.74" x2="503.43" y2="391.36"/><line class="cls-9" x1="230.16" y1="388.38" x2="192.65" y2="425.89"/><line class="cls-9" x1="528.56" y1="81.66" x2="491.05" y2="119.17"/><circle class="cls-7" cy="327.91" r="71.7"/></g></g></svg>